:SAMPLES-PER-SECOND 30
:FULLY-SPECIFIED
:DEGREES
1627
root  21.2622 38.2948 -9.10856 170.065 -57.3722 -174.829
RightUpLeg  -10.8737 -11.7632 -3.77533
RightLeg  19.3751 3.5693 1.86344
RightFoot  -3.75456 -0.37162 5.22151
RightToes  2.32829e-010 0 -3.6325e-017
Spine  9.78836 -1.64122 12.7969
Spine1  4.404 0.358731 -1.35391
HEad  -22.0855 9.63556 -11.5922
LeftShoulder1  0.0785527 3.27924 -28.7675
LeftArm  -6.0922 13.9711 -41.9974
LeftForeArm  24.4173 -7.34041 -7.55364
LeftHand  -0.0302601 6.80937 0.408982
RightShoulder  -0.33867 -4.55598 25.1121
RightArm  13.1064 -5.79592 47.8257
RightForeArm  7.04544 11.6829 6.31783
RightHand  -0.388084 4.9906 -4.63902
LeftUpLeg  2.20925 -8.5135 5.29682
LeftLeg  47.3905 -6.99943 -7.64171
LeftFoot  2.88383 0.440061 -3.66611
LeftToes  -3.54706e-010 1.16038e-010 5.28031e-012
1628
root  20.8971 38.3732 -9.91108 169.005 -59.7788 -173.862
RightUpLeg  -9.03052 -12.7614 -3.64624
RightLeg  19.7351 2.11062 1.92525
RightFoot  -5.52569 -0.28513 4.86529
RightToes  2.32829e-010 0 -3.6325e-017
Spine  9.25013 -1.50341 14.2765
Spine1  6.00141 0.833888 -1.58984
HEad  -23.8759 7.42936 -10.6428
LeftShoulder1  0.205166 2.91851 -28.9331
LeftArm  -5.34986 14.5155 -41.8108
LeftForeArm  25.0401 -9.25625 -7.4973
LeftHand  -0.0373716 5.9153 -0.716578
RightShoulder  -0.333003 -4.54607 24.862
RightArm  14.1661 -4.05025 47.0584
RightForeArm  6.50822 12.0709 6.46034
RightHand  -0.40848 5.11122 -4.81622
LeftUpLeg  -2.08807 -7.52381 6.15472
LeftLeg  52.9314 -3.15205 -3.99548
LeftFoot  9.1095 0.648458 -3.92
LeftToes  -3.54706e-010 1.16038e-010 5.28031e-012
1629
root  20.499 38.5156 -10.7177 168.805 -61.6761 -173.904
RightUpLeg  -6.91565 -13.031 -3.85341
RightLeg  19.3504 0.574482 1.88536
RightFoot  -6.84618 -0.222 4.47641
RightToes  2.32829e-010 0 -3.6325e-017
Spine  9.54257 -1.39904 15.1088
Spine1  6.11849 1.30101 -2.49955
HEad  -25.0235 5.40966 -9.70044
LeftShoulder1  0.220899 2.86946 -28.6822
LeftArm  -3.93334 15.6371 -41.875
LeftForeArm  23.9281 -11.4973 -7.22235
LeftHand  -0.0435165 5.91335 -2.02156
RightShoulder  -0.373129 -4.67084 24.9692
RightArm  14.3931 -1.73378 46.2412
RightForeArm  7.59344 11.1651 6.75396
RightHand  -0.371296 4.9944 -4.46362
LeftUpLeg  -5.74703 -5.63342 6.15568
LeftLeg  56.8386 -0.282753 -0.00731913
LeftFoot  8.13419 0.44749 -2.869
LeftToes  -3.54706e-010 1.16038e-010 5.28031e-012
1630
root  20.0671 38.7051 -11.4937 169.643 -63.7403 -174.794
RightUpLeg  -4.80221 -13.0508 -4.4349
RightLeg  18.3278 -1.2755 1.8143
RightFoot  -7.84573 -0.186627 4.36748
RightToes  2.32829e-010 0 -3.6325e-017
Spine  9.7243 -1.34089 15.2269
Spine1  5.4869 1.47262 -3.26226
HEad  -24.8827 3.93225 -9.4774
LeftShoulder1  0.213424 2.88713 -28.4658
LeftArm  -2.58215 17.0784 -42.1703
LeftForeArm  22.2558 -13.671 -6.65957
LeftHand  -0.0414768 5.77917 -2.33616
RightShoulder  -0.33223 -4.55176 24.6248
RightArm  14.8033 0.0999326 45.4412
RightForeArm  8.4934 10.5832 7.01644
RightHand  -0.353815 3.76106 -4.73333
LeftUpLeg  -9.27933 -3.83423 5.20139
LeftLeg  58.2827 0.0829029 0.665579
LeftFoot  6.35005 0.11562 -1.02609
LeftToes  -3.54706e-010 1.16038e-010 5.28031e-012
1631
root  19.5834 38.8227 -12.2239 170.874 -65.1649 -176.036
RightUpLeg  -3.01482 -13.1754 -5.02483
RightLeg  17.7102 -2.38491 1.96963
RightFoot  -9.06427 -0.145872 4.22755
RightToes  2.32829e-010 0 -3.6325e-017
Spine  9.52785 -0.948757 15.3974
Spine1  5.37302 1.9592 -3.9523
HEad  -24.1764 1.47141 -8.87842
LeftShoulder1  0.211211 2.89258 -28.4138
LeftArm  -1.77106 17.8315 -42.7224
LeftForeArm  21.7244 -15.1912 -6.13608
LeftHand  -0.0279003 5.04385 -1.37173
RightShoulder  -0.339335 -4.58474 24.3332
RightArm  14.9075 1.80523 44.556
RightForeArm  8.42267 10.0839 7.19326
RightHand  -0.304549 3.66599 -4.15594
LeftUpLeg  -11.9702 -1.62968 3.9901
LeftLeg  57.0924 -1.06695 -1.25159
LeftFoot  4.21433 0.175738 -1.44469
LeftToes  -3.54706e-010 1.16038e-010 5.28031e-012
